<svg width="409" height="183" viewBox="0 0 409 183" fill="none" xmlns="http://www.w3.org/2000/svg">
    <path
        d="M30.128 25.4H36.368V59H30.128V25.4ZM12.752 59H6.512V25.4H12.752V59ZM30.608 44.6H12.224V39.272H30.608V44.6ZM40.6194 59L55.7394 25.4H61.8834L77.0514 59H70.5234L57.5154 28.712H60.0114L47.0514 59H40.6194ZM47.5794 51.224L49.2594 46.328H67.4034L69.0834 51.224H47.5794ZM81.3245 59V25.4H95.1485C98.1245 25.4 100.669 25.88 102.781 26.84C104.925 27.8 106.573 29.176 107.725 30.968C108.877 32.76 109.453 34.888 109.453 37.352C109.453 39.816 108.877 41.944 107.725 43.736C106.573 45.496 104.925 46.856 102.781 47.816C100.669 48.744 98.1245 49.208 95.1485 49.208H84.7805L87.5645 46.376V59H81.3245ZM103.309 59L94.8125 46.808H101.484L110.029 59H103.309ZM87.5645 47.048L84.7805 44.072H94.8605C97.6125 44.072 99.6765 43.48 101.052 42.296C102.461 41.112 103.165 39.464 103.165 37.352C103.165 35.208 102.461 33.56 101.052 32.408C99.6765 31.256 97.6125 30.68 94.8605 30.68H84.7805L87.5645 27.608V47.048ZM116.434 59V25.4H122.674V53.72H140.242V59H116.434ZM150.928 39.368H167.632V44.504H150.928V39.368ZM151.408 53.768H170.368V59H145.168V25.4H169.696V30.632H151.408V53.768ZM185.206 59V45.704L186.598 49.544L172.005 25.4H178.678L190.39 44.84H186.646L198.454 25.4H204.598L190.006 49.544L191.446 45.704V59H185.206Z"
        fill="#2E1E1D" />
    <path
        d="M28.128 23.4H34.368V57H28.128V23.4ZM10.752 57H4.512V23.4H10.752V57ZM28.608 42.6H10.224V37.272H28.608V42.6ZM38.6194 57L53.7394 23.4H59.8834L75.0514 57H68.5234L55.5154 26.712H58.0114L45.0514 57H38.6194ZM45.5794 49.224L47.2594 44.328H65.4034L67.0834 49.224H45.5794ZM79.3245 57V23.4H93.1485C96.1245 23.4 98.6685 23.88 100.781 24.84C102.925 25.8 104.573 27.176 105.725 28.968C106.877 30.76 107.453 32.888 107.453 35.352C107.453 37.816 106.877 39.944 105.725 41.736C104.573 43.496 102.925 44.856 100.781 45.816C98.6685 46.744 96.1245 47.208 93.1485 47.208H82.7805L85.5645 44.376V57H79.3245ZM101.309 57L92.8125 44.808H99.4845L108.029 57H101.309ZM85.5645 45.048L82.7805 42.072H92.8605C95.6125 42.072 97.6765 41.48 99.0525 40.296C100.461 39.112 101.165 37.464 101.165 35.352C101.165 33.208 100.461 31.56 99.0525 30.408C97.6765 29.256 95.6125 28.68 92.8605 28.68H82.7805L85.5645 25.608V45.048ZM114.434 57V23.4H120.674V51.72H138.242V57H114.434ZM148.928 37.368H165.632V42.504H148.928V37.368ZM149.408 51.768H168.368V57H143.168V23.4H167.696V28.632H149.408V51.768ZM183.206 57V43.704L184.598 47.544L170.005 23.4H176.678L188.39 42.84H184.646L196.454 23.4H202.598L188.006 47.544L189.446 43.704V57H183.206Z"
        fill="#C17F62" />
    <path
        d="M148.241 73.62C156.515 73.62 163.598 74.47 169.491 76.17C175.385 77.7566 180.201 79.9666 183.941 82.8C187.681 85.6333 190.401 88.92 192.101 92.66C193.915 96.4 194.821 100.423 194.821 104.73C194.821 109.037 193.745 113.117 191.591 116.97C189.438 120.71 186.378 123.997 182.411 126.83C178.558 129.55 173.855 131.76 168.301 133.46C162.748 135.047 156.571 135.84 149.771 135.84H127.671V158.11C127.671 162.417 127.785 165.873 128.011 168.48C128.238 170.973 128.521 172.843 128.861 174.09C129.315 175.563 129.768 176.583 130.221 177.15V178H102.681V177.15C103.021 176.583 103.418 175.563 103.871 174.09C104.211 172.843 104.495 170.973 104.721 168.48C105.061 165.873 105.231 162.417 105.231 158.11V93.68C105.231 89.3733 105.061 85.9733 104.721 83.48C104.495 80.8733 104.211 78.9466 103.871 77.7C103.418 76.2266 103.021 75.2066 102.681 74.64V73.79L148.241 73.62ZM136.341 133.8C143.028 133.8 148.638 133.063 153.171 131.59C157.705 130.117 161.331 128.077 164.051 125.47C166.885 122.863 168.868 119.803 170.001 116.29C171.248 112.777 171.871 108.923 171.871 104.73C171.871 100.537 171.361 96.6833 170.341 93.17C169.321 89.6566 167.678 86.6533 165.411 84.16C163.145 81.5533 160.141 79.5133 156.401 78.04C152.775 76.5666 148.298 75.83 142.971 75.83H129.541C129.201 76.7366 128.805 78.4933 128.351 81.1C127.898 83.7066 127.671 87.9 127.671 93.68V133.8H136.341Z"
        fill="#2E1E1D" />
    <path
        d="M309.407 125.3C309.407 134.253 307.877 142.13 304.817 148.93C301.757 155.617 297.677 161.227 292.577 165.76C287.477 170.18 281.697 173.523 275.237 175.79C268.777 178.057 262.203 179.19 255.517 179.19C248.83 179.19 242.257 178.057 235.797 175.79C229.337 173.523 223.557 170.18 218.457 165.76C213.357 161.227 209.277 155.617 206.217 148.93C203.157 142.13 201.627 134.253 201.627 125.3C201.627 116.347 203.157 108.527 206.217 101.84C209.277 95.1533 213.357 89.6 218.457 85.18C223.557 80.6466 229.337 77.2466 235.797 74.98C242.257 72.7133 248.83 71.58 255.517 71.58C262.203 71.58 268.777 72.7133 275.237 74.98C281.697 77.2466 287.477 80.6466 292.577 85.18C297.677 89.6 301.757 95.1533 304.817 101.84C307.877 108.527 309.407 116.347 309.407 125.3ZM286.457 125.3C286.457 113.74 284.927 104.163 281.867 96.57C278.807 88.8633 274.953 83.0833 270.307 79.23C265.773 75.3766 260.843 73.45 255.517 73.45C250.19 73.45 245.203 75.3766 240.557 79.23C236.023 83.0833 232.227 88.8633 229.167 96.57C226.107 104.163 224.577 113.74 224.577 125.3C224.577 136.86 226.107 146.493 229.167 154.2C232.227 161.907 236.023 167.687 240.557 171.54C245.203 175.393 250.19 177.32 255.517 177.32C260.843 177.32 265.773 175.393 270.307 171.54C274.953 167.687 278.807 161.907 281.867 154.2C284.927 146.493 286.457 136.86 286.457 125.3Z"
        fill="#2E1E1D" />
    <path
        d="M363.437 179.02C356.751 179.02 350.517 178.34 344.737 176.98C339.071 175.62 334.084 173.807 329.777 171.54C325.584 169.16 322.241 166.44 319.747 163.38C317.367 160.207 316.177 156.807 316.177 153.18V152.84C316.291 149.553 317.537 146.777 319.917 144.51C322.297 142.13 325.131 140.94 328.417 140.94C331.817 140.94 334.707 142.187 337.087 144.68C339.467 147.06 340.657 149.893 340.657 153.18C340.657 155.787 341.111 158.45 342.017 161.17C343.037 163.89 344.511 166.383 346.437 168.65C348.477 170.803 351.027 172.56 354.087 173.92C357.147 175.28 360.774 175.96 364.967 175.96C368.254 175.96 371.144 175.223 373.637 173.75C376.131 172.163 378.171 170.293 379.757 168.14C381.457 165.873 382.704 163.493 383.497 161C384.291 158.507 384.687 156.297 384.687 154.37C384.687 149.95 383.101 146.38 379.927 143.66C376.754 140.827 372.787 138.447 368.027 136.52C363.381 134.48 358.281 132.61 352.727 130.91C347.287 129.097 342.187 126.943 337.427 124.45C332.781 121.843 328.871 118.613 325.697 114.76C322.524 110.907 320.937 105.863 320.937 99.63C320.937 96.0033 321.787 92.5466 323.487 89.26C325.187 85.86 327.681 82.8566 330.967 80.25C334.367 77.6433 338.504 75.6033 343.377 74.13C348.364 72.5433 354.087 71.75 360.547 71.75C367.234 71.75 373.071 72.3733 378.057 73.62C383.157 74.8666 387.407 76.5666 390.807 78.72C394.207 80.76 396.871 83.14 398.797 85.86C400.837 88.58 402.141 91.3566 402.707 94.19C403.047 95.21 403.217 96.2866 403.217 97.42V97.76C402.991 101.047 401.687 103.88 399.307 106.26C397.041 108.527 394.264 109.66 390.977 109.66C387.577 109.66 384.687 108.47 382.307 106.09C379.927 103.71 378.737 100.82 378.737 97.42C378.737 94.8133 378.511 92.15 378.057 89.43C377.604 86.5966 376.754 84.0466 375.507 81.78C374.261 79.4 372.504 77.4733 370.237 76C367.971 74.5266 365.081 73.79 361.567 73.79C355.674 73.79 351.197 75.5466 348.137 79.06C345.077 82.5733 343.547 87.05 343.547 92.49C343.547 97.93 345.134 102.237 348.307 105.41C351.481 108.583 355.447 111.247 360.207 113.4C365.081 115.44 370.294 117.253 375.847 118.84C381.514 120.427 386.727 122.41 391.487 124.79C396.361 127.17 400.384 130.23 403.557 133.97C406.731 137.597 408.317 142.583 408.317 148.93C408.317 152.217 407.354 155.617 405.427 159.13C403.614 162.643 400.837 165.873 397.097 168.82C393.357 171.767 388.654 174.203 382.987 176.13C377.434 178.057 370.917 179.02 363.437 179.02Z"
        fill="#2E1E1D" />
    <path
        d="M98.8574 150.57C96.024 159.297 92.1707 166.153 87.2974 171.14C82.424 176.013 77.0974 179.3 71.3174 181C65.6507 182.7 59.8707 182.927 53.9774 181.68C48.084 180.547 42.7574 178.223 37.9974 174.71C33.2374 171.083 29.3274 166.437 26.2674 160.77C23.2074 155.103 21.6774 148.643 21.6774 141.39C21.6774 134.93 22.754 129.263 24.9074 124.39C27.174 119.517 30.1207 115.437 33.7474 112.15C37.374 108.75 41.454 106.2 45.9874 104.5C50.5207 102.8 55.1107 101.95 59.7574 101.95C63.2707 101.95 66.8974 102.403 70.6374 103.31C74.4907 104.103 78.004 105.463 81.1774 107.39C84.3507 109.317 86.9574 111.867 88.9974 115.04C91.0374 118.1 92.0574 121.897 92.0574 126.43C92.0574 130.623 91.2074 134.023 89.5074 136.63C87.8074 139.123 85.5974 141.22 82.8774 142.92C80.1574 144.507 77.0974 145.753 73.6974 146.66C70.4107 147.567 67.0674 148.53 63.6674 149.55C60.2674 150.457 57.0374 151.533 53.9774 152.78C51.0307 154.027 48.594 155.783 46.6674 158.05C49.7274 162.697 53.5807 166.21 58.2274 168.59C62.874 170.857 67.634 171.763 72.5074 171.31C77.494 170.743 82.1974 168.76 86.6174 165.36C91.1507 161.847 94.664 156.633 97.1574 149.72L98.8574 150.57ZM59.2474 103.65C56.414 103.65 53.864 104.67 51.5974 106.71C49.444 108.637 47.574 111.243 45.9874 114.53C44.514 117.703 43.324 121.387 42.4174 125.58C41.624 129.66 41.2274 133.91 41.2274 138.33C41.2274 141.957 41.624 145.3 42.4174 148.36C43.2107 151.307 44.344 154.083 45.8174 156.69C47.744 154.083 50.2374 151.76 53.2974 149.72C56.4707 147.68 59.474 145.47 62.3074 143.09C65.254 140.71 67.7474 137.99 69.7874 134.93C71.9407 131.87 73.0174 128.017 73.0174 123.37C73.0174 121.67 72.734 119.687 72.1674 117.42C71.714 115.153 70.9207 113 69.7874 110.96C68.654 108.92 67.2374 107.22 65.5374 105.86C63.8374 104.387 61.7407 103.65 59.2474 103.65Z"
        fill="#2E1E1D" />
    <path
        d="M95.8574 147.57C93.024 156.297 89.1707 163.153 84.2974 168.14C79.424 173.013 74.0974 176.3 68.3174 178C62.6507 179.7 56.8707 179.927 50.9774 178.68C45.084 177.547 39.7574 175.223 34.9974 171.71C30.2374 168.083 26.3274 163.437 23.2674 157.77C20.2074 152.103 18.6774 145.643 18.6774 138.39C18.6774 131.93 19.754 126.263 21.9074 121.39C24.174 116.517 27.1207 112.437 30.7474 109.15C34.374 105.75 38.454 103.2 42.9874 101.5C47.5207 99.8 52.1107 98.95 56.7574 98.95C60.2707 98.95 63.8974 99.4033 67.6374 100.31C71.4907 101.103 75.004 102.463 78.1774 104.39C81.3507 106.317 83.9574 108.867 85.9974 112.04C88.0374 115.1 89.0574 118.897 89.0574 123.43C89.0574 127.623 88.2074 131.023 86.5074 133.63C84.8074 136.123 82.5974 138.22 79.8774 139.92C77.1574 141.507 74.0974 142.753 70.6974 143.66C67.4107 144.567 64.0674 145.53 60.6674 146.55C57.2674 147.457 54.0374 148.533 50.9774 149.78C48.0307 151.027 45.594 152.783 43.6674 155.05C46.7274 159.697 50.5807 163.21 55.2274 165.59C59.874 167.857 64.634 168.763 69.5074 168.31C74.494 167.743 79.1974 165.76 83.6174 162.36C88.1507 158.847 91.664 153.633 94.1574 146.72L95.8574 147.57ZM56.2474 100.65C53.414 100.65 50.864 101.67 48.5974 103.71C46.444 105.637 44.574 108.243 42.9874 111.53C41.514 114.703 40.324 118.387 39.4174 122.58C38.624 126.66 38.2274 130.91 38.2274 135.33C38.2274 138.957 38.624 142.3 39.4174 145.36C40.2107 148.307 41.344 151.083 42.8174 153.69C44.744 151.083 47.2374 148.76 50.2974 146.72C53.4707 144.68 56.474 142.47 59.3074 140.09C62.254 137.71 64.7474 134.99 66.7874 131.93C68.9407 128.87 70.0174 125.017 70.0174 120.37C70.0174 118.67 69.734 116.687 69.1674 114.42C68.714 112.153 67.9207 110 66.7874 107.96C65.654 105.92 64.2374 104.22 62.5374 102.86C60.8374 101.387 58.7407 100.65 56.2474 100.65Z"
        fill="#C17F62" />
</svg>
    